<svg width="30" height="30" viewBox="0 0 30 30" fill="none" xmlns="http://www.w3.org/2000/svg">
<path d="M15.0033 3.58492e-07C12.0364 -0.000648135 9.136 0.878535 6.66884 2.52636C4.20167 4.17419 2.27857 6.51664 1.14275 9.25747C0.00693774 11.9983 -0.29058 15.0144 0.287828 17.9243C0.866236 20.8343 2.29459 23.5073 4.39224 25.6054C6.4899 27.7035 9.16264 29.1325 12.0724 29.7115C14.9822 30.2906 17.9984 29.9937 20.7395 28.8585C23.4806 27.7233 25.8235 25.8007 27.4718 23.3339C29.1202 20.8671 30 17.9669 30 15C29.9957 11.0236 28.4144 7.21136 25.603 4.39935C22.7916 1.58734 18.9796 0.00520718 15.0033 3.58492e-07V3.58492e-07ZM19.1639 8.89836C19.1639 8.95836 19.1401 9.0159 19.0977 9.05833C19.0552 9.10075 18.9977 9.12459 18.9377 9.12459H17.1344C16.922 9.12459 16.7181 9.20877 16.5676 9.3587C16.417 9.50864 16.332 9.71211 16.3311 9.92459V11.8131H18.8984C18.9295 11.8134 18.9603 11.8202 18.9887 11.833C19.0171 11.8458 19.0426 11.8643 19.0635 11.8874C19.0845 11.9105 19.1004 11.9376 19.1104 11.9672C19.1203 11.9967 19.124 12.028 19.1213 12.059L18.8984 14.7213C18.8934 14.7778 18.8674 14.8304 18.8255 14.8687C18.7836 14.907 18.7289 14.9281 18.6721 14.9279H16.3311V23.7639C16.3311 23.8239 16.3073 23.8815 16.2649 23.9239C16.2225 23.9663 16.1649 23.9902 16.1049 23.9902H12.8754C12.8154 23.9902 12.7579 23.9663 12.7154 23.9239C12.673 23.8815 12.6492 23.8239 12.6492 23.7639V14.9279H11.0361C10.9761 14.9279 10.9185 14.904 10.8761 14.8616C10.8337 14.8192 10.8098 14.7616 10.8098 14.7016V12.0393C10.8098 11.9793 10.8337 11.9218 10.8761 11.8794C10.9185 11.8369 10.9761 11.8131 11.0361 11.8131H12.6492V9.24918C12.6492 8.39005 12.9905 7.56611 13.598 6.95862C14.2055 6.35112 15.0294 6.00983 15.8885 6.00983H18.9377C18.9977 6.00983 19.0552 6.03367 19.0977 6.0761C19.1401 6.11852 19.1639 6.17606 19.1639 6.23606V8.89836Z" />
</svg>
